<?xml version="1.0" encoding="utf-8"?>
<svg width="204" height="59" viewBox="0 0 204 59" fill="none" xmlns="http://www.w3.org/2000/svg">
  <path d="M196.396 59H7.55371C3.40106 59 0 55.6794 0 51.625V7.375C0 3.32059 3.40106 7.56029e-07 7.55371 7.56029e-07H196.396C200.549 7.56029e-07 203.95 3.32059 203.95 7.375V51.625C203.95 55.6794 200.549 59 196.396 59Z" fill="black"/>
  <path d="M196.396 1.18184C199.894 1.18184 202.74 3.96037 202.74 7.375V51.625C202.74 55.0396 199.894 57.8182 196.396 57.8182H7.55371C4.05634 57.8182 1.21048 55.0396 1.21048 51.625V7.375C1.21048 3.96037 4.05634 1.18184 7.55371 1.18184H196.396ZM196.396 7.56029e-07H7.55371C3.40106 7.56029e-07 0 3.32059 0 7.375V51.625C0 55.6794 3.40106 59 7.55371 59H196.396C200.549 59 203.95 55.6794 203.95 51.625V7.375C203.95 3.32059 200.549 7.56029e-07 196.396 7.56029e-07Z" fill="#A6A6A6"/>
  <path d="M71.6356 15.1095C71.6356 16.3411 71.2579 17.3276 70.5139 18.0632C69.6584 18.9353 68.5442 19.3741 67.1789 19.3741C65.874 19.3741 64.7598 18.9279 63.8458 18.0485C62.9299 17.1561 62.4729 16.0609 62.4729 14.75C62.4729 13.4391 62.9299 12.3439 63.8458 11.4589C64.7598 10.5721 65.874 10.1259 67.1789 10.1259C67.8285 10.1259 68.4479 10.2568 69.039 10.5002C69.6282 10.7454 70.1078 11.0772 70.4553 11.4866L69.6659 12.2646C69.0598 11.5658 68.2345 11.2211 67.1789 11.2211C66.2271 11.2211 65.4019 11.5456 64.7013 12.2001C64.0082 12.8565 63.6607 13.7064 63.6607 14.75C63.6607 15.7936 64.0082 16.6509 64.7013 17.3073C65.4019 17.9544 66.2271 18.2863 67.1789 18.2863C68.1892 18.2863 69.039 17.9544 69.7094 17.2999C70.1513 16.8666 70.4024 16.2692 70.4685 15.5059H67.1789V14.4402H71.5676C71.6205 14.6707 71.6356 14.8938 71.6356 15.1095Z" fill="white" stroke="white" stroke-width="0.16" stroke-miterlimit="10"/>
  <path d="M78.5982 11.4146H74.4757V14.2171H78.1922V15.2828H74.4757V18.0853H78.5982V19.1713H73.3087V10.3287H78.5982V11.4146Z" fill="white" stroke="white" stroke-width="0.16" stroke-miterlimit="10"/>
  <path d="M83.5118 19.1713H82.3448V11.4146H79.8162V10.3287H86.0423V11.4146H83.5118V19.1713Z" fill="white" stroke="white" stroke-width="0.16" stroke-miterlimit="10"/>
  <path d="M90.5482 19.1713V10.3287H91.7133V19.1713H90.5482Z" fill="white" stroke="white" stroke-width="0.16" stroke-miterlimit="10"/>
  <path d="M96.8781 19.1713H95.7205V11.4146H93.1825V10.3287H99.4161V11.4146H96.8781V19.1713Z" fill="white" stroke="white" stroke-width="0.16" stroke-miterlimit="10"/>
  <path d="M111.204 18.0337C110.311 18.9279 109.204 19.3741 107.884 19.3741C106.556 19.3741 105.45 18.9279 104.556 18.0337C103.665 17.1413 103.221 16.0462 103.221 14.75C103.221 13.4538 103.665 12.3587 104.556 11.4663C105.45 10.5721 106.556 10.1259 107.884 10.1259C109.196 10.1259 110.303 10.5721 111.196 11.4737C112.095 12.3734 112.539 13.4612 112.539 14.75C112.539 16.0462 112.095 17.1413 111.204 18.0337ZM105.42 17.2925C106.092 17.9544 106.909 18.2863 107.884 18.2863C108.851 18.2863 109.676 17.9544 110.341 17.2925C111.011 16.6306 111.351 15.7807 111.351 14.75C111.351 13.7193 111.011 12.8694 110.341 12.2075C109.676 11.5456 108.851 11.2137 107.884 11.2137C106.909 11.2137 106.092 11.5456 105.42 12.2075C104.749 12.8694 104.409 13.7193 104.409 14.75C104.409 15.7807 104.749 16.6306 105.42 17.2925Z" fill="white" stroke="white" stroke-width="0.16" stroke-miterlimit="10"/>
  <path d="M114.176 19.1713V10.3287H115.592L119.996 17.2059H120.047L119.996 15.5059V10.3287H121.161V19.1713H119.945L115.334 11.9549H115.283L115.334 13.6622V19.1713H114.176Z" fill="white" stroke="white" stroke-width="0.16" stroke-miterlimit="10"/>
  <path d="M 72.55 38.39 C 75.508 37.627 77.459 35.344 77.459 32.361 C 77.459 28.672 74.525 26.076 70.409 26.076 L 63.079 26.076 L 63.079 45.936 L 66.461 45.936 L 66.461 38.635 L 68.861 38.635 L 74.107 45.936 L 78.08 45.936 L 72.55 38.383 L 72.55 38.39 Z M 70.409 29.175 C 72.525 29.175 73.989 30.474 73.989 32.361 C 73.989 34.25 72.525 35.546 70.409 35.546 L 66.461 35.546 L 66.461 29.182 L 70.409 29.182 L 70.409 29.175 Z" fill="white" style="stroke-width: 1;"/>
  <path d="M 85.697 46.218 C 87.474 46.218 89.111 45.289 90.039 43.74 L 90.687 45.936 L 93.109 45.936 L 93.109 31.285 L 89.867 31.285 L 89.867 39.767 C 89.867 41.851 88.483 43.315 86.595 43.315 C 84.707 43.315 83.441 41.851 83.441 39.767 L 83.441 31.285 L 80.199 31.285 L 80.199 40.129 C 80.199 43.654 82.566 46.218 85.697 46.218 Z" fill="white" style="stroke-width: 1;"/>
  <path d="M 103.457 46.216 C 107.21 46.216 110.309 44.077 110.309 40.528 C 110.309 36.554 107.068 35.398 104.276 34.439 C 102.104 33.707 100.215 33.031 100.215 31.254 C 100.215 29.703 101.655 28.884 103.346 28.884 C 105.124 28.884 106.391 29.814 107.099 31.393 L 110.316 30.859 C 109.301 27.758 106.736 25.785 103.237 25.785 C 99.737 25.785 96.754 27.87 96.754 31.418 C 96.754 35.423 99.995 36.517 102.787 37.447 C 104.928 38.148 106.847 38.824 106.847 40.632 C 106.847 42.214 105.408 43.111 103.488 43.111 C 101.286 43.111 100.105 42.072 99.059 40.184 L 95.788 40.75 C 96.747 44.101 99.791 46.216 103.457 46.216 Z" fill="white" style="stroke-width: 1;"/>
  <path d="M 119.129 43.119 C 118.029 43.119 117.493 42.583 117.493 41.482 L 117.493 34.102 L 121.866 34.102 L 121.866 31.285 L 117.493 31.285 L 117.493 27.059 L 115.07 27.059 L 114.251 31.285 L 111.853 31.285 L 111.853 34.102 L 114.251 34.102 L 114.251 41.482 C 114.251 44.355 115.913 45.936 119.129 45.936 L 121.866 45.936 L 122.149 43.119 L 119.129 43.119 Z" fill="white" style="stroke-width: 1;"/>
  <path d="M 131.412 46.218 C 136.006 46.218 139.248 43.063 139.248 38.61 C 139.248 34.157 136.006 31.001 131.412 31.001 C 126.816 31.001 123.575 34.157 123.575 38.61 C 123.575 43.063 126.816 46.218 131.412 46.218 Z M 131.412 43.26 C 128.76 43.26 126.959 41.371 126.959 38.61 C 126.959 35.849 128.76 33.961 131.412 33.961 C 134.062 33.961 135.864 35.849 135.864 38.61 C 135.864 41.371 134.062 43.26 131.412 43.26 Z" fill="white" style="stroke-width: 1;"/>
  <path d="M 145.312 45.936 L 145.312 37.287 C 145.312 35.429 146.216 34.384 148.191 34.384 L 150.053 34.384 L 149.771 31.285 L 149.15 31.285 C 147.427 31.285 146.104 31.765 145.115 33.4 L 144.493 31.285 L 142.071 31.285 L 142.071 45.936 L 145.312 45.936 Z" fill="white" style="stroke-width: 1;"/>
  <path d="M 166.006 38.443 C 166.006 34.217 162.851 31.007 158.39 31.007 C 153.932 31.007 150.775 34.192 150.775 38.615 C 150.775 43.037 153.932 46.223 158.39 46.223 C 161.436 46.223 164.315 44.784 165.409 41.998 L 162.364 41.487 C 161.656 42.532 160.303 43.264 158.586 43.264 C 156.108 43.264 154.472 41.745 154.159 39.489 L 165.944 39.489 C 165.975 39.18 165.999 38.842 165.999 38.443 M 158.383 33.823 C 160.415 33.823 161.941 35.122 162.475 36.948 L 154.355 36.948 C 154.891 35.059 156.417 33.823 158.39 33.823" fill="white" style="stroke-width: 1;"/>
  <path d="M 17.362 45.39 C 19.942 47.966 24.089 47.966 32.388 47.966 L 33.852 47.966 C 42.151 47.966 46.298 47.966 48.878 45.39 C 51.457 42.815 51.457 38.663 51.457 30.363 L 51.457 28.897 C 51.457 20.595 51.457 16.445 48.878 13.868 C 46.298 11.292 42.145 11.292 33.852 11.292 L 32.388 11.292 C 24.089 11.292 19.936 11.292 17.362 13.868 C 14.783 16.451 14.783 20.601 14.783 28.897 L 14.783 30.363 C 14.783 38.663 14.783 42.815 17.362 45.39 Z" fill="#0077FF" style="stroke-width: 1;"/>
  <path fill-rule="evenodd" clip-rule="evenodd" d="M 43.096 35.67 L 40.62 35.052 C 40.322 34.965 40.11 34.696 40.099 34.388 L 39.79 25.268 C 39.699 24.059 38.806 23.098 37.868 22.817 C 37.816 22.8 37.759 22.817 37.73 22.869 C 37.697 22.915 37.714 22.977 37.753 23.013 C 37.983 23.19 38.623 23.774 38.623 24.781 L 38.623 36.706 C 38.623 37.856 37.53 38.705 36.41 38.423 L 33.893 37.794 C 33.612 37.696 33.418 37.439 33.412 37.135 L 33.103 28.016 C 33.012 26.808 32.119 25.846 31.183 25.566 C 31.131 25.548 31.074 25.566 31.045 25.616 C 31.01 25.662 31.028 25.725 31.068 25.76 C 31.296 25.937 31.937 26.521 31.937 27.53 L 31.937 37.468 L 31.937 39.455 C 31.937 40.606 30.851 41.452 29.729 41.171 L 22.625 39.397 C 21.637 39.151 20.944 38.263 20.944 37.25 L 20.944 25.308 C 20.944 24.157 22.031 23.309 23.151 23.59 L 27.63 24.707 L 27.63 22.554 C 27.63 21.403 28.716 20.555 29.838 20.837 L 34.317 21.954 L 34.317 19.8 C 34.317 18.65 35.403 17.802 36.525 18.083 L 43.627 19.857 C 44.618 20.103 45.31 20.991 45.31 22.004 L 45.31 33.946 C 45.31 35.097 44.223 35.945 43.102 35.664" fill="white" style="stroke-width: 1;"/>
</svg>